<svg id="Capa_1" data-name="Capa 1" xmlns="http://www.w3.org/2000/svg" viewBox="0 0 36.67 109.8"><defs><style>.cls-1{fill:#1d1d1b;}</style></defs><title>silueta-notselected</title><path class="cls-1" d="M35.64,105.56c-.33-.76-1.5-3.1-1.75-3.93s-.41-1.17-.45-1.37a6.86,6.86,0,0,1,.1-1.45,6.19,6.19,0,0,0,0-2.76,53,53,0,0,1-1-8.65,34.7,34.7,0,0,0-1-6.49A9.75,9.75,0,0,1,30.8,79c0-.58-.33-.59-.46-1.21s0-1.25-.16-1.4.15-.31,0-.89a4.26,4.26,0,0,0-.48-1.09,22.51,22.51,0,0,1-.31-2.72,3.13,3.13,0,0,1-.07-1.77,39,39,0,0,0,.2-5.76c-.07-1.9-.26-7.46-.5-8.75a5.61,5.61,0,0,1-.17-1.77,1.9,1.9,0,0,0-.13-.63c0-.15-.18-.1.12-.73A11,11,0,0,0,29.5,50a3.4,3.4,0,0,1,.81-1.52A22.44,22.44,0,0,0,32,43.8a14.94,14.94,0,0,1,.61-3.12c.33-.81-.3-1.32-.18-2.58s.51-1.65.54-2.84,0-4.19,0-6.44a54.06,54.06,0,0,0-1-8.6c-.28-1.12-.08-1.16-1.49-1.82a18.38,18.38,0,0,0-2.84-1c-1.19-.41-4-1.24-4.62-1.52a2.24,2.24,0,0,1-1.32-1.09,4.69,4.69,0,0,1-.56-1.75c0-.35.08-.84.31-.79a1.14,1.14,0,0,0,1,0c.64-.23,1.11-.08,1.21-1.52s0-1.82-.33-2.29a7.42,7.42,0,0,0-.58-.81,2.84,2.84,0,0,0-.51-.4s-.25-.81-.33-1.17a7.4,7.4,0,0,0-1-2.64A8.57,8.57,0,0,0,18.77,1c-.71-.56-1.06-1-2-1.06a7,7,0,0,0-4,1.29c-.92.84-1,1.11-1.32,1.4a4,4,0,0,0-1.39,2.2c0,.81,0,1.25.23,1.42a2.37,2.37,0,0,0,.51.31c-.25.07-.46.26-.64.69a12.36,12.36,0,0,1-.94,2,14.72,14.72,0,0,1-2.16,2.49c-.51.36-1,.58-1.12,1.3s-.71,1.55-1.16,2.76a30,30,0,0,1-2.13,4.52,9.82,9.82,0,0,0-1.52,2.91,19.67,19.67,0,0,0-.83,3.65c-.1,1.09-.21,3.83,2.28,3.7a6.12,6.12,0,0,0,4-1.75c.48-.35,2.23-1.72,2.51-1.57s.23.87.36,1.65.25,5.65.25,6.34a50.18,50.18,0,0,1-1.3,6c-.48,1.73-1.9,4.46-2,5.56s-.18,1.58-.33,2.51a11.21,11.21,0,0,1-.63,2.26c-.26.73-.36,1-.1,1.35s.31.07.3.54.41,3.38.59,4.52.53,4.13.83,5.48.35,3,.66,5.35A28.51,28.51,0,0,1,8.18,74c0,1.82-.45,2.54-.5,4a17,17,0,0,0,.54,7.23c1.09,3.19.71,5.78,1.06,7.81s.56,1.87.58,3-.25,1.3.21,1.77.76.08.78.66-.26,2.64-.36,3.57-1.29,4.54,1.49,5,4.19-.5,4-3.25-.41-4-.2-4.64a1.57,1.57,0,0,0,0-1.06c0-.18.48-1.14.31-1.55a34.51,34.51,0,0,1-.53-6.6,43.54,43.54,0,0,0,.1-6.14c-.17-1.42-.2-4.49-.31-5.55s-.13-1.25-.17-1.6a1.3,1.3,0,0,1,.1-1,1.14,1.14,0,0,0,.28-1.14c-.12-.73.38-7.76.64-10.45s.73-6.92.73-6.92a19,19,0,0,1,1.3,4.49c.33,2.33,1.95,6.21,2.31,8.09s.89,5.22,1.24,6.14A21.77,21.77,0,0,0,23,79.21c.59,1,.2,1.78.41,2.58s.73,2.9,1.09,4.7,1.4,5.76,1.63,7.84a28.55,28.55,0,0,0,1.25,5c.25.89.23,1.11.94,1.49s.41,1.27.51,2.25a2.5,2.5,0,0,0,1,1.87,2.38,2.38,0,0,1,.64,1.87c0,.89,1,3.2,4.06,2.71S36,106.32,35.64,105.56ZM14,16.07a10.11,10.11,0,0,1-1.34.3c-.73,0-.54.33-1.4.53s-.73.08-1.6.33a13.69,13.69,0,0,0-2.23,1L8,15.54a1.15,1.15,0,0,1,.78-.66c.56-.12,1.09-.84,1.52-1.39a2.66,2.66,0,0,1,1.87-.79c.33,0,.31.18.51.68a2.82,2.82,0,0,0,.84,1.47,11.53,11.53,0,0,1,1.25,1.09A6.26,6.26,0,0,1,14,16.07ZM28.29,38.8a19,19,0,0,0-.12,2,5.41,5.41,0,0,1-.41,1.93,9.71,9.71,0,0,0-.36,2.51s-.48-1-.69-1.52-.1-.69.07-1.17,0-.5.15-1a2.32,2.32,0,0,0-.12-1.5A6.15,6.15,0,0,1,26.49,38c-.1-1.16.48-1.52.68-2.15s.08-1.11.41-1.57a1.54,1.54,0,0,0,.26-1.12,6.7,6.7,0,0,1,.26,1.19c0,.46,0,.69,0,1.22A25.51,25.51,0,0,1,28.29,38.8Z"/></svg>