<?xml version="1.0" encoding="utf-8"?>
<!-- Generator: Adobe Illustrator 20.1.0, SVG Export Plug-In . SVG Version: 6.00 Build 0)  -->
<svg version="1.1" id="Capa_1" xmlns="http://www.w3.org/2000/svg" xmlns:xlink="http://www.w3.org/1999/xlink" x="0px" y="0px"
	 viewBox="0 0 115 200" style="enable-background:new 0 0 115 200;" xml:space="preserve">
<style type="text/css">
	.st0{fill:#B1B3B6;}
	.st1{fill:#8BA0BC;}
</style>
<path class="st0" d="M113.5,165.8c-1-0.1,0.4-0.5,0.7-0.7c0.4-0.2-0.4-0.2-0.9-0.3c-0.5-0.1-0.7-0.1-0.9-0.2
	c-0.1-0.1,0.2-0.2,0.2-0.3c-0.1-0.1-0.3-0.1-1.2-0.1c-0.8,0-0.1-0.2-0.9-0.3c-0.7-0.1-1.2,0-2.2,0.1c-1,0.1-0.8-0.3-1.3-0.4
	c-0.5-0.1-1.1-0.3-1.3-0.5c-0.2-0.2-0.2-0.6-1.1-0.8c-0.8-0.2-1.1-0.1-1-0.4c0.1-0.3-3-0.6-3.1-0.6c-0.1,0-2.1-0.2-2.7-0.3
	c-0.6-0.1-1.2-0.3-1.4-0.5c-0.2-0.3,1.1-1.1,1.1-1.1l2.5,0.5c0,0-0.5-0.3-1.3-0.6c-0.8-0.3-1-1.5-0.5-2.5c0.5-0.9-0.8-1.8-3.1-2.7
	c-2.2-0.9-6.2-0.6-7.2-0.5c-2.5-0.6-9,0.6-10.5,1.3c-1.5,0.7-4.2,2-5.5,2.4c-1.4,0.5-0.8,0.4-0.5,0.9c0.3,0.5-1.5,0.7-2.7,1.2
	c-1.3,0.5-0.5,0.5-0.4,0.7c0.1,0.1,0,0.4-0.4,0.7c-0.4,0.3-2.5,0.4-3.7,0.6c-1.3,0.2-5.6,0.9-6.7,1c-1.1,0.2-3.5,0.8-4.7,1
	c-1.2,0.2-2.6,0.6-3.5,0.7c-0.9,0.2-3.5,0.7-4.7,0.8c-1.2,0.1-1.1,0.1-1.8,0.3c-0.7,0.2-1,0.3-2,0.3c-0.9,0.1-1,0.3-1.8,0.7
	c-0.8,0.4-3,0.5-3,0.5l-0.5,0.3c0,0,0.4,0.1-0.3,0.3c-0.7,0.1-0.6,0.6-0.5,0.9c0.1,0.2,3.5,1.3,4.8,1.8c1.3,0.5,5.8,1.6,5.8,1.6
	s0.3,0.1,0.4,0.4c0.1,0.4,1.3,0.1,2,0.3c0.7,0.2,2,0.1,2.3,0.1c0.3,0,0.7,0.1,0.4,0.2c-0.3,0.1,0.8,0.3,0.8,0.3c0,0-0.6,0.2-1,0.4
	c-0.4,0.2-0.7,0.7-1.4,0.8c-0.7,0.2-1.1,0.3-1.1,0.5c0,0.2-0.6,0.5-1.6,0.7c-1,0.2-0.7,0.5-1,0.8c-0.3,0.3-0.6,0.3-1.4,0.5
	c-0.8,0.2-0.5,0.4-1,0.8c-0.6,0.5-2,1.5-2.8,1.9c-0.8,0.5-2.4,1.9-2.4,1.9l0.9,0.1c0,0-0.1,0.1-0.4,0.4c-0.4,0.3-1.1,0.7-1.4,1.1
	c-0.3,0.4-3.1,1.5-6.5,2.2c-3.3,0.7-5.6,2.1-6.2,2.9c-0.6,0.8-2.2,2.4-3.2,2.6c-0.9,0.2-1.4,0.5-1.4,0.8c-0.1,0.3-1.1,0.7-2.1,1.1
	c-1,0.4-2.7,1.1-4.2,1.7c-1.5,0.6-0.6,1.1,0,1.7c0.6,0.6,2.9,0,5.9-0.4c3-0.4,3.7-1.3,3.8-1.7c0.1-0.3,2.2-1.5,2.6-1.8
	c0.4-0.3,0.5-0.6,0.7-0.7c0.2-0.1,0.4-0.4,0.4-0.7c-0.1-0.3,0.7-0.5,1-0.8c0.3-0.3,8.7-2.6,9.6-2.8c0.9-0.3,1.9-1.2,3.6-1.5
	c1.7-0.4,5.1-1.2,5.3-1.4c0.2-0.2,0.6-0.3,1.7-0.7c1.1-0.3,3.9-1.9,3.9-1.9c1.8,0,8.5-0.1,8.5-0.1s-0.4,0.5-1.2,1
	c-0.8,0.4-1,0.9-0.9,1.3c0.1,0.4-0.2,1-1.1,1.3c-0.9,0.4-2,1.1-2.3,1.7c-0.3,0.6-2.4,1.7-2.8,2.6c-0.4,0.9-2.2,1.7-3.3,2
	c-1.1,0.3-1.3,0.5-2.1,0.6c-0.8,0.1-2.2,0.7-2.3,1.2c-0.1,0.5-1.2,1.2-2.3,2c-1,0.8,0.7,1.2,1.6,1.6c1,0.5,1.6,0.2,4.7-0.3
	c3-0.6,4-1.6,3.8-2.1c-0.1-0.5-0.1-1.7,0.1-1.8c0.3-0.1,1.4-0.6,1.7-0.9c0.4-0.3,2-0.9,5.4-2.2c3.4-1.3,7.9-3.5,8.7-4
	c0.7-0.5,1.2-1.6,1.8-2c0.5-0.4,3.3-2.1,3.5-2.1c0.3,0,1-0.1,1-0.1s0.5-0.2,0.7-0.4c0.2-0.2,2.9-1.2,3.7-1.5
	c0.7-0.3,1.3-0.8,4.9-2.1c3.6-1.3,4.1-3.1,3.8-3.5c-0.3-0.4,0.6-0.7,1.1-0.9c0.5-0.2,0.5-0.8,0.5-0.8s0.1,0,1.1,0
	c1,0,3.3-0.3,4.3-0.6c0.9-0.3,2.1-0.4,3.8-0.8c1.7-0.4,9.3-1.9,11.4-2.4c2.1-0.5,5-1.5,5.2-1.8C115.3,166.4,114.6,166,113.5,165.8z
	 M56,170.5c-0.4,0.1-1.2,0.4-2,0.5s-2.4,0.3-2.4,0.1c-0.1-0.2-0.8-0.2-1.5-0.3c-0.7-0.1-2.7-0.7-3.3-1.2c-0.6-0.4-2.5-1.3-3.1-1.4
	c-0.6-0.2-0.1-0.3,0.3-0.4c0,0,1.1-0.1,2.2-0.2c1.1-0.1,0,0,0.4,0c0.4,0,0.8,0.1,1.1,0.1c0.3,0,0.9,0,1.6-0.2
	c0.7-0.1,0.3-0.2,0.4-0.3c0.1-0.1,0.3,0,0.8,0c0.5,0,0.8,0.1,1.2,0.1c0.4,0,1.1,0.1,1.1,0.3c0,0.2,0.3,0.6,0.5,0.8
	c0.2,0.2,0.6,0.4,1.1,0.7c0.5,0.3,0.5,0.4,0,0.8c-0.4,0.3,1.2,0.3,1.7,0.3C56.4,170.3,56.3,170.4,56,170.5z M106.1,167.2
	c-0.2,0.1-2.3,0.6-3.7,1c-1.4,0.3-4.5,1.2-5.7,1.5c-1.2,0.3-4.8,1-5.6,1c-0.8,0-1.3-0.3-2.1-0.4c-0.8-0.2,0.1-0.1,1.2-0.2
	c1.1-0.1,1.3-0.1,1.5-0.4c0.2-0.2,1.1-0.9,1.5-1.3c0.5-0.4,2.5-0.7,2.8-0.7c0.3,0,1.2-0.2,1.8-0.3c0.6-0.1,0.4-0.2,0.8-0.3
	c0.4-0.1,1.8,0,2.7,0c0,0,0.5,0,0.6-0.1c0.1-0.1,0.8,0,1.1,0c0.2,0.1,0.3,0,0.7,0s0.9-0.1,1.1-0.1c0.2,0,0.7,0,1.1,0.1
	C106.2,167.1,106.3,167.1,106.1,167.2z"/>
<path class="st1" d="M76.3,56.4c-1.2-0.7-1.1-1.4-1-2.2c0.1-0.8-0.7-1.1-1.2-1.5c-0.6-0.4-0.9-0.5-1.1-1c-0.3-0.5,0-0.9-0.2-1.3
	c-0.2-0.4-0.4-0.3-1.3-0.4c-0.9-0.2-0.4-1-1.3-1.5c-0.9-0.6-0.3-0.8-1.2-0.5c-0.9,0.4-1.1-1.3-1.7-1.7c-0.6-0.4-1.5-1.6-1.9-2.3
	c-0.4-0.7-0.9-2.7-2-3.7c-1.1-1-1.3-0.7-1.5-1.9c-0.2-1.3-3.7-2.6-3.8-2.8c-0.1-0.1-2.4-1-3-1.3c-0.7-0.4-1.5-1.2-2-2.4
	c-0.5-1.2-0.2-4.9-0.2-4.9l3.2,2.5c0,0-0.8-1.4-2-2.7c-1.1-1.4-2.8-7.1-3.4-11.4c-0.6-4.3-3-8.2-6.3-12.2c-3.3-4-6.9-2.9-7.8-2.2
	c-0.9-0.8-2-0.9-3.1-0.5l0,0c0,0,0,0,0,0c-1,0.3-2,1-2.9,1.9c-2.4,2-4.5,4.7-5,7c-0.7,3.1-1.3,3.5-2.2,4.9c-0.9,1.4-1.8,2.6-1.8,3.5
	c-0.1,0.9-0.3,3.5-0.3,3.5s0.4-2.6,0.9-3.7c0.6-1.1,1-1.6,1-1.6s-0.2,2.6-0.6,4.7c-0.5,2.1-1.6,4.8-1.5,6.8c0.2,2.1,0.3,3,1,3.8
	c0.8,0.8,1.6,1.1,1.6,1.1s-2-2.1-2-3c0-0.9,0.3-2.6,0.7-2.5c0.4,0.1,0.6,0.3,1.3,1.9c0.6,1.6,0.9,3.6,0.3,4.5
	c-0.6,0.9-1.4,0.6-1.7,1.7c-0.3,1.1-0.1,1.3-0.9,1.6l1.2-0.2c-0.1,0.1-0.2,0.2-0.3,0.3c-1,0.9-4.5,4.1-5.4,4.8
	c-0.9,0.7-2.5,3.8-3.5,4.6c-1,0.7-1.9,2.6-2.6,3.4c-0.7,0.7-2.6,3.3-3.7,3.7c-1.1,0.4-0.9,0.5-1.5,1.2c-0.5,0.7-0.7,2.2-1.5,2.5
	c-0.9,0.3-0.7,0.5-0.9,2.4c-0.3,1.9-1.5,3-1.5,3l-1.1,0.4c0,0,0.5,0.7,0,1.3c-0.5,0.7,0.2,2.9,0.5,4.1c0.4,1.1,5.1,6.1,6.9,8.2
	c1.8,2.1,7.8,7.5,7.8,7.5s0.4,0.3,0.9,1.9c0.5,1.6,1.5,0.5,2.3,1.4c0.9,0.8,2.1,0.3,2.4,0.5c0.4,0.2,0.8,0.4,0.6,0.8
	c-0.2,0.5,1.1,1.3,1.2,1.5c0,0.2-0.4,0.7-0.5,1.7c-0.1,1,0.1,3.1-0.4,3.9c-0.5,0.8-0.7,1.3-0.5,2.1c0.2,0.8,0,2.5-0.7,3.3
	c-0.7,0.8,0,2.5,0,3.7c0,1.2,0.7,1.6,0.2,2.5c-0.5,0.9-0.9,1.8-0.9,3.9c0,2.1-0.3,6.7-0.5,8.9c-0.3,2.2-0.1,8.5-0.1,8.5l1,0.4
	c0,0,0.1,0.5,0.1,1.9c0,1.4-0.2,3.4,0,5.2c0.1,1.8-1.4,6.8-3.8,10.1c-2.5,3.3-3.1,9.5-2.8,13.2c0.4,3.7,0.6,10.8,0,11.9
	c-0.6,1.1-0.8,2.4-0.5,3.6c0.3,1.2-0.3,3.1-0.8,4.9c-0.5,1.8-1.4,5.1-2.2,8c-0.7,2.9,0.7,5,2,7.6c1.3,2.6,3,0.1,5.5-1.9
	c2.5-2,2.1-6,1.8-7.6c-0.3-1.6,0.4-6.9,0.5-8.2c0-1.3-0.2-2.7-0.1-3.2c0.1-0.5,0-1.9-0.4-3c-0.4-1.1,0.1-2.3,0-3.6
	c0-1.3,5.6-11.8,6.3-13c0.6-1.2,0.5-5.3,1.8-7c1.3-1.7,3.7-5.3,3.7-6.2c0-0.9,0.2-1.6,0.9-3c0.7-1.5,1.6-8.6,1.6-8.6
	c1.8,0.1,8.4-0.7,8.4-0.7s0.2,2.4,0,4.4c-0.3,2,0.1,4.1,0.7,5.9c0.6,1.8,0.9,4.4,0.4,6c-0.5,1.6-0.7,4.9-0.3,7.7
	c0.4,2.8-0.3,8,0.4,12.1c0.7,4.1-0.1,7.8-0.9,9c-0.8,1.3-0.7,2.3-1.3,2.9c-0.6,0.7-1.3,3.3-0.9,5.3c0.4,2.1,0.2,5.4,0.1,9
	c-0.1,3.6,2.1,5.5,3.6,7.5c1.5,2.1,1.9,1,4.3-1.6c2.4-2.6,2.1-7.4,1.4-9.5c-0.7-2.2-2.2-7.7-2.1-8.4c0.1-0.7,0.7-2.6,0.7-4.1
	c0-1.5,1-4.1,2.7-10.3c1.8-6.1,3.8-15.9,3.9-18.3c0.1-2.4-0.6-7.1-0.6-9.2c0-2,0.8-9.6,1-9.8c0.2-0.2,0.8-0.7,0.8-0.7s0.2-1,0.2-1.9
	c0-0.9,1.5-5.3,1.9-6.7c0.4-1.4,0.4-3.7,2.4-9.4c2.1-5.7,0.4-14.3-0.4-16.2c-0.8-1.9-0.3-3.4,0-4.3c0.3-0.9-0.4-3.6-0.4-3.6
	s0.1,0.1,1.1,0.1c1,0,3-1.4,3.6-2.6c0.6-1.2,1.5-2,2.8-3.9c1.2-1.9,7.1-8.5,8.5-10.9c1.5-2.4,3.1-7,3.1-8.1
	C78.7,58.8,77.5,57,76.3,56.4z M24.3,77.8c-0.2,0.6-0.8,1.6-1.4,2.3c-0.6,0.7-2,1.4-2.3,0.6c-0.3-0.8-1.1-0.9-1.9-1.5
	c-0.9-0.6-3.6-3.4-4.8-5.4c-1.1-2-4-5.8-4.8-6.5c-0.8-0.7-0.5-1.5-0.2-1.6c0,0,0.9-0.5,1.9-1.1c1-0.6,0,0,0.4,0
	c0.4,0,0.9,0.4,1.3,0.7c0.4,0.2,0.9-0.2,1.4-0.7c0.5-0.5,0-1,0-1.5c0-0.5,0.2-0.1,0.7,0c0.5,0.1,0.9,0.3,1.4,0.5
	c0.4,0.2,1.2,0.5,1.5,1.5c0.3,1,1,2.6,1.4,3.5c0.4,0.8,1.1,1.9,1.9,3.2c0.8,1.3,1,1.9,0.9,3.5c0,1.5,1.5,1.1,2,1.3
	C24.4,76.7,24.5,77.2,24.3,77.8z M70.5,62.6c-0.1,0.4-1.5,2.9-2.6,4.4c-1,1.5-3,5.7-3.9,7c-0.8,1.2-3.7,4.5-4.4,4.7
	c-0.7,0.2-1.6-1.2-2.6-1.9c-1-0.7,0-0.5,0.9-1c0.9-0.5,1.1-0.7,1-1.7c-0.1-1,0-4.1,0-5.9c0-1.9,1.7-3.2,1.9-3.4
	c0.2-0.2,0.9-0.9,1.4-1.4c0.5-0.5,0.1-1.1,0.4-1.5c0.3-0.4,1.8-0.1,2.7,0.1c0,0,0.5,0,0.5-0.3c0-0.3,0.8-0.2,1.1,0.1
	c0.3,0.3,0.4,0.1,0.7,0c0.4-0.1,0.7-0.4,0.9-0.6c0.2-0.2,0.8,0.2,1.3,0.6C70.5,62.1,70.6,62.3,70.5,62.6z"/>
<image style="overflow:visible;" width="20" height="18" xlink:href="../../../Screen Shot 2016-10-04 at 1.05.54 AM.png"  transform="matrix(0.5 0 0 0.5 -87.453 6.3507)">
</image>
</svg>
