<?xml version="1.0" encoding="utf-8"?>
<!-- Generator: Adobe Illustrator 20.1.0, SVG Export Plug-In . SVG Version: 6.00 Build 0)  -->
<svg version="1.1" id="Capa_1" xmlns="http://www.w3.org/2000/svg" xmlns:xlink="http://www.w3.org/1999/xlink" x="0px" y="0px"
	 viewBox="0 0 43.878 108.632" enable-background="new 0 0 43.878 108.632" xml:space="preserve">
<path fill="#1D1D1B" d="M43.445,33.367c-0.199-0.351-0.352-0.747-0.307-0.945c0.047-0.198-0.014-0.565-0.334-0.596
	c-0.32-0.03-0.535-0.412-0.58-0.794c-0.045-0.382-0.412-0.854-0.871-1.267c-0.457-0.411-1.021-0.977-1.266-1.465
	c-0.244-0.488-0.566-0.351-1.008-0.381c-0.441-0.03-1.021-1.038-1.42-1.496c-0.396-0.457-1.326-1.266-2.045-2.121
	c-0.717-0.854-3.021-2.687-3.219-3.418c-0.199-0.732-0.947-0.58-1.588-0.564c-0.641,0.015-1.449-0.581-1.908-0.916
	c-0.457-0.336-0.152-0.84-0.014-0.976c0.137-0.138,0.518-0.306,0.688-0.688c0.168-0.382-0.262-0.733-0.688-1.113
	c-0.428-0.382-0.719-0.58-0.643-1.114c0.076-0.534-0.533-2.243-1.037-3.098c-0.504-0.854,0.137-3.083,0.076-4.243
	c-0.061-1.159-0.992-3.846-2.014-5.921c-1.021-2.076-3.893-2.015-4.457-1.679c-2.271-1.345-3.436,1.145-4.334,2.703
	c-0.9,1.556-2.184,6.012-2.215,6.577c-0.029,0.564,0.031,1.922-0.32,3.799c-0.342,1.828,0.092,4.93-0.107,5.234
	c-0.197,0.306-0.73,0.488-1.478,0.688c-0.748,0.198-1.236,0.244-2.182,0.259c-0.945,0.016-2.184,0.886-2.902,2.137
	c-0.717,1.251-2.791,4.136-3.205,4.715c-0.41,0.58-2.103,2.655-2.334,3.342c-0.229,0.687-1.145,1.771-1.373,2.382
	c-0.228,0.609-0.031,0.961-0.168,1.54c-0.137,0.581,0.535,2.961,1.176,4.518c0.641,1.557,4.258,7.555,4.258,7.555
	s0,0.32-0.016,0.595c-0.016,0.274,0.475,0.138,0.475,0.138s0.014,0.32-0.031,0.564c-0.047,0.244,0.242,0.137,0.242,0.137
	s0.018-0.076,0.275,0.474c0.26,0.55,1.008,1.297,1.406,1.526c0.397,0.229,0.594,0.183,0.809,0.579
	c0.213,0.396,1.158,1.252,1.402,1.557c0.244,0.306-0.061,0.642-0.32,1.038c-0.26,0.396,0.199,1.694,0.231,2.259
	c0.029,0.565,0.061,1.099-0.443,1.587c-0.504,0.488,0.137,0.916-0.016,1.358c-0.152,0.442-0.076,0.595-0.381,1.251
	c-0.307,0.656-0.275,0.778-0.275,1.648c0,0.87-0.502,2.503-0.733,4.212c-0.23,1.709-0.824,8.851-0.885,10.514
	c-0.061,1.664-0.412,4.197-0.322,4.503c0.092,0.305,0.229,0.809-0.029,1.235c-0.26,0.428,0.305,1.13,0.258,1.45
	c-0.043,0.32,0.338,0.549,0.445,0.9c0.108,0.352,0.045,0.809,0.381,3.144c0.336,2.336,1.969,7.065,1.982,7.692
	c0.018,0.625,0.26,1.51,0.062,1.922c-0.199,0.412-0.107,1.465-0.152,1.755c-0.045,0.29-0.229,0.504-0.488,0.412
	c-0.26-0.092-0.611-0.214-1.053,0.092c-0.443,0.306-0.244,0.915-0.795,1.16c-0.549,0.245-1.816,0.549-1.174,1.587
	c0.641,1.037,1.525-0.214,1.937-1.022s0.961-0.84,0.961-0.84s-0.228,1.19-0.654,1.893c-0.428,0.701-1.1,1.71-2.947,2.091
	c-1.846,0.381-2.121,1.495-2.289,2.885c-0.168,1.389,1.176,2.075,3.969,1.907c2.793-0.168,4.195-2,4.471-2.35
	c0.275-0.352,0.9-0.702,1.357-0.397c0.459,0.305,0.475,0.367,1.619,0.274c1.145-0.092,2.977-1.206,2.977-1.206
	s0.014-1.144-0.092-2.06c-0.107-0.916-0.824-2.595-1.07-3.037c-0.244-0.442-0.289-0.854-0.182-1.648
	c0.107-0.793-0.061-0.763-0.367-0.991c-0.305-0.229-0.275-0.428-0.229-1.068c0.047-0.642-0.367-1.603-0.504-2.503
	c-0.137-0.9,0.062-1.953,0.197-4.35c0.139-2.396-1.691-6.943-1.906-7.417c-0.215-0.473,0.121-0.609,0.412-0.976
	c0.289-0.367,0.152-0.489-0.031-0.794c-0.182-0.306,0.215-0.55,0.459-0.992c0.244-0.443,0.289-1.45,0.275-1.907
	c-0.018-0.458,0.9-3.007,1.572-4.868c0.67-1.861,3.676-9.142,3.676-9.142s0.58,1.938,0.611,2.641
	c0.029,0.702,0.383,4.99,0.473,6.349c0.092,1.358,0.383,4.242,0.123,4.868c-0.26,0.626,0.137,1.725,0.441,2.259
	c0.305,0.533,0.551,1.557-0.152,2.808c-0.701,1.251-0.488,5.539-0.305,6.517c0.184,0.977-0.137,2.029-0.58,3.158
	c-0.441,1.13,0.533,2.428,0.533,2.428s-0.289,0.396-0.809,0.686c-0.518,0.29-0.213,1.329-0.092,2.076
	c0.123,0.747,0.246,2.778,0.078,3.663c-0.168,0.885,0.244,4.532,1.129,5.967c0.885,1.435,4.563,0.259,5.248-0.688
	c0.688-0.946-0.029-2.41-0.334-3.082c-0.305-0.672-1.451-3.327-1.451-3.327s0.244,0.137,0.475,0.29
	c0.228,0.152,0.686,0.244,0.717-0.229c0.029-0.473-0.58-0.992-0.947-1.328c-0.365-0.335-0.211-0.625,0-1.128
	c0.215-0.503-0.549-0.459-0.549-0.459s0.26-0.061,0.475-0.763c0.215-0.702-0.564-1.146-0.564-1.146s0.365-0.137,0.701-0.441
	c0.336-0.306,0.549-0.748,0.643-1.389c0.09-0.641,0.182-1.328,0.182-2.183s0.885-2.915,1.129-4.839
	c0.246-1.923,0.475-5.951,0.457-6.317c-0.016-0.366,0-0.961-0.014-1.647c-0.016-0.688,0.045-1.358,0.121-3.175
	c0.078-1.816,0.596-4.929,0.793-5.539c0.199-0.611,0.658-2.687,0.764-3.571c0.107-0.885,0.732-2.121,0.717-2.747
	c-0.014-0.625,0.734-1.403,0.916-1.571c0.184-0.168,0.291-0.442,0.199-0.824c-0.09-0.382-0.152-0.29-0.168-0.809
	c-0.016-0.52-0.123-1.312,0.045-2.182c0.17-0.87-0.15-1.482-0.014-1.878c0.137-0.396,0.061-0.564-0.092-0.778
	c-0.152-0.214-0.166-0.351,0.275-0.625c0.441-0.275,0.228-0.977,0.137-1.374c-0.092-0.396-0.031-1.205-0.123-1.587
	c-0.092-0.382-0.184-0.519-0.014-0.702c0.168-0.183,0.824-0.656,1.449-0.656s0.9-0.092,1.252-0.428
	c0.35-0.335,2.67-3.464,3.555-4.898c0.885-1.435,3.969-5.692,3.969-5.692s0.428,0.092,0.609,0.031
	c0.186-0.062,0.32-0.352,0.49-1.283c0.168-0.931,0.961-1.892,1.158-2.441C43.949,34.253,43.644,33.719,43.445,33.367z
	 M10.433,50.476c0,0-0.488-0.366-0.656-0.641c-0.168-0.274-0.168-0.565-0.121-0.641c0.121-0.428,0.822,0.579,0.822,0.579
	L10.433,50.476z M11.349,44.784c-0.107-0.076-0.397,0.259-0.596,0.503c-0.197,0.244-0.945,0.702-1.252,0.718
	c-0.305,0.016-0.641-0.443-0.625-0.962c0.016-0.519-0.473-0.519-0.473-0.519s-1.664-2.365-2.076-3.876
	c-0.412-1.511-2.027-4.7-2.027-4.7s0.562-0.413,0.809-0.825c0.242-0.411,0.594-0.976,0.853-1.175
	c0.26-0.198,1.404-1.175,1.449-1.617c0.047-0.442,0.809-0.488,1.221-0.809c0.412-0.32,0.596-0.916,0.58-1.358
	c0,0,0.168,0.168,0.397,0.26c0.228,0.092,0.551-0.168,0.627-0.062c0.076,0.107,0.41,0.397,0.303,0.931
	c-0.105,0.534,0.108,2.793,0.26,3.77c0.154,0.977,0.582,8.745,0.582,8.745S11.455,44.861,11.349,44.784z M37.923,36.105
	c-0.398,0.43-0.4,1.259-0.4,1.259s-0.367,0.43-0.613,1.167c-0.246,0.737-1.535,2.917-2.088,3.716
	c-0.553,0.798-2.365,3.531-2.918,3.592c-0.553,0.062-1.443-0.245-1.842-0.891c-0.399-0.645-0.859-0.645-0.859-0.645
	s0.031-0.337-0.062-0.736c-0.092-0.399-0.521-1.413-0.521-2.427c0-1.013,0.246-3.807,0.768-5.558c0.523-1.75,1.08-4.282,1.197-4.79
	c0.094-0.399,1.107,0.092,1.291,0.031c0.184-0.062,0.215,0.03,0.49,0.153c0.277,0.122,0.553,0.307,0.768,0.43
	c0.215,0.122,0.338,0.03,0.615,0.03c0.275,0,0.307,0.246,0.396,0.399c0.094,0.154,0.523,0.276,0.955,0.399
	c0.43,0.123,0.613,0.031,0.613,0.583c0,0.553,0.92,0.829,1.197,0.982c0.277,0.154,0.277,0.554,0.277,0.83
	c0,0.275,0.398,0.215,0.551,0.245c0.154,0.03,0.523,0.093,0.553,0.215C38.322,35.214,38.322,35.675,37.923,36.105z"/>
</svg>
